#N canvas 124 61 1156 717 10;
#X obj 552 -56 adc~;
#X obj 563 390 dac~;
#X obj 635 256 catch~ Left;
#X obj 732 254 catch~ Right;
#X obj 460 320 *~;
#X obj 530 320 *~;
#X obj 414 254 r dry @hv_param 0 1 0;
#X obj 594 308 *~;
#X obj 665 314 *~;
#X obj 695 200 r wet @hv_param 0 1 1;
#N canvas 0 75 1280 703 vcf 0;
#X obj 267 93 vcf~;
#X msg 288 66 1;
#X obj 288 39 loadbang;
#X obj 277 15 sig~ 24;
#X obj 838 52 vcf~;
#X msg 859 25 1;
#X obj 859 -2 loadbang;
#X obj 1381 104 vcf~;
#X msg 1402 77 1;
#X obj 1402 50 loadbang;
#X obj 1879 97 vcf~;
#X msg 1900 70 1;
#X obj 1900 43 loadbang;
#X obj 309 -528 vcf~;
#X msg 330 -555 1;
#X obj 330 -582 loadbang;
#X obj 723 -531 vcf~;
#X msg 744 -558 1;
#X obj 744 -585 loadbang;
#X obj 1210 -553 vcf~;
#X msg 1231 -580 1;
#X obj 1231 -607 loadbang;
#X obj 1728 -564 vcf~;
#X msg 1749 -594 1;
#X obj 1749 -621 loadbang;
#X obj 848 -26 sig~ 48;
#X obj 1391 26 sig~ 96;
#X obj 1889 19 sig~ 190;
#X obj 319 -606 sig~ 375;
#X obj 733 -609 sig~ 750;
#X obj 1220 -631 sig~ 1500;
#X obj 1738 -642 sig~ 3000;
#X obj 1998 -17 line~;
#X obj 1998 -42 pack;
#X obj 1998 -210 metro;
#X obj 1998 -158 t b b;
#X obj 2085 -108 random 1000;
#X obj 1997 11 -~ 100;
#X obj 2004 47 *~ -1;
#X obj 1983 100 /~ 100;
#X obj 2055 100 /~ 100;
#X obj 1998 -264 loadbang;
#X obj 2068 -226 random 1000;
#X obj 2068 -258 metro 200;
#X obj 2068 -291 loadbang;
#X obj 1969 245 throw~ Left;
#X obj 2035 221 throw~ Right;
#X obj 1968 156 *~;
#X obj 2034 152 *~;
#X obj 1482 0 line~;
#X obj 1482 -25 pack;
#X obj 1482 -193 metro;
#X obj 1482 -141 t b b;
#X obj 1569 -91 random 1000;
#X obj 1481 28 -~ 100;
#X obj 1488 64 *~ -1;
#X obj 1467 117 /~ 100;
#X obj 1539 117 /~ 100;
#X obj 1482 -247 loadbang;
#X obj 1552 -209 random 1000;
#X obj 1552 -241 metro 200;
#X obj 1552 -274 loadbang;
#X obj 1453 262 throw~ Left;
#X obj 1519 238 throw~ Right;
#X obj 1452 173 *~;
#X obj 1518 169 *~;
#X obj 933 -32 line~;
#X obj 933 -57 pack;
#X obj 933 -225 metro;
#X obj 933 -173 t b b;
#X obj 1020 -123 random 1000;
#X obj 932 -4 -~ 100;
#X obj 939 32 *~ -1;
#X obj 918 85 /~ 100;
#X obj 990 85 /~ 100;
#X obj 933 -279 loadbang;
#X obj 1003 -241 random 1000;
#X obj 1003 -273 metro 200;
#X obj 1003 -306 loadbang;
#X obj 904 230 throw~ Left;
#X obj 970 206 throw~ Right;
#X obj 903 141 *~;
#X obj 969 137 *~;
#X obj 370 -11 line~;
#X obj 370 -36 pack;
#X obj 370 -204 metro;
#X obj 370 -152 t b b;
#X obj 457 -102 random 1000;
#X obj 369 17 -~ 100;
#X obj 376 53 *~ -1;
#X obj 355 106 /~ 100;
#X obj 427 106 /~ 100;
#X obj 370 -258 loadbang;
#X obj 440 -220 random 1000;
#X obj 440 -252 metro 200;
#X obj 440 -285 loadbang;
#X obj 341 251 throw~ Left;
#X obj 407 227 throw~ Right;
#X obj 340 162 *~;
#X obj 406 158 *~;
#X obj 425 -622 line~;
#X obj 425 -647 pack;
#X obj 425 -815 metro;
#X obj 425 -763 t b b;
#X obj 512 -713 random 1000;
#X obj 424 -594 -~ 100;
#X obj 431 -558 *~ -1;
#X obj 410 -505 /~ 100;
#X obj 482 -505 /~ 100;
#X obj 425 -869 loadbang;
#X obj 495 -831 random 1000;
#X obj 495 -863 metro 200;
#X obj 495 -896 loadbang;
#X obj 396 -360 throw~ Left;
#X obj 462 -384 throw~ Right;
#X obj 395 -449 *~;
#X obj 461 -453 *~;
#X obj 831 -631 line~;
#X obj 831 -656 pack;
#X obj 831 -824 metro;
#X obj 831 -769 t b b;
#X obj 918 -722 random 1000;
#X obj 830 -603 -~ 100;
#X obj 837 -567 *~ -1;
#X obj 816 -514 /~ 100;
#X obj 888 -514 /~ 100;
#X obj 831 -878 loadbang;
#X obj 901 -840 random 1000;
#X obj 901 -872 metro 200;
#X obj 901 -905 loadbang;
#X obj 802 -369 throw~ Left;
#X obj 868 -393 throw~ Right;
#X obj 801 -458 *~;
#X obj 867 -462 *~;
#X obj 1324 -634 line~;
#X obj 1324 -659 pack;
#X obj 1324 -827 metro;
#X obj 1324 -775 t b b;
#X obj 1411 -725 random 1000;
#X obj 1323 -606 -~ 100;
#X obj 1330 -570 *~ -1;
#X obj 1309 -517 /~ 100;
#X obj 1381 -517 /~ 100;
#X obj 1324 -881 loadbang;
#X obj 1394 -843 random 1000;
#X obj 1394 -875 metro 200;
#X obj 1394 -908 loadbang;
#X obj 1295 -372 throw~ Left;
#X obj 1361 -396 throw~ Right;
#X obj 1294 -461 *~;
#X obj 1360 -465 *~;
#X obj 1854 -645 line~;
#X obj 1854 -670 pack;
#X obj 1854 -838 metro;
#X obj 1854 -786 t b b;
#X obj 1941 -736 random 1000;
#X obj 1853 -617 -~ 100;
#X obj 1860 -581 *~ -1;
#X obj 1839 -528 /~ 100;
#X obj 1911 -528 /~ 100;
#X obj 1854 -892 loadbang;
#X obj 1924 -854 random 1000;
#X obj 1924 -886 metro 200;
#X obj 1924 -919 loadbang;
#X obj 1825 -383 throw~ Left;
#X obj 1891 -407 throw~ Right;
#X obj 1824 -472 *~;
#X obj 1890 -476 *~;
#X obj 896 391 inlet~;
#X obj 241 -673 +;
#X obj 241 -722 random 100;
#X msg 337 -693 100;
#X obj 337 -660 -;
#X obj 337 -721 t b f;
#X obj 337 -742 * 2;
#X obj 659 -694 +;
#X obj 659 -743 random 100;
#X msg 755 -714 100;
#X obj 755 -681 -;
#X obj 755 -742 t b f;
#X obj 755 -763 * 2;
#X obj 1055 -651 +;
#X obj 1055 -700 random 100;
#X msg 1151 -671 100;
#X obj 1151 -638 -;
#X obj 1151 -699 t b f;
#X obj 1151 -720 * 2;
#X obj 1649 -706 +;
#X obj 1649 -755 random 100;
#X msg 1745 -726 100;
#X obj 1745 -693 -;
#X obj 1745 -754 t b f;
#X obj 1745 -775 * 2;
#X obj 1809 -56 +;
#X obj 1809 -105 random 100;
#X msg 1905 -76 100;
#X obj 1905 -43 -;
#X obj 1905 -104 t b f;
#X obj 1905 -125 * 2;
#X obj 1289 -56 +;
#X obj 1289 -105 random 100;
#X msg 1385 -76 100;
#X obj 1385 -43 -;
#X obj 1385 -104 t b f;
#X obj 1385 -125 * 2;
#X obj 729 -76 +;
#X obj 729 -125 random 100;
#X msg 825 -96 100;
#X obj 825 -63 -;
#X obj 825 -124 t b f;
#X obj 825 -145 * 2;
#X obj 175 -39 +;
#X obj 175 -88 random 100;
#X msg 271 -59 100;
#X obj 271 -26 -;
#X obj 271 -87 t b f;
#X obj 271 -108 * 2;
#X obj 589 702 vcf~;
#X msg 610 675 1;
#X obj 610 648 loadbang;
#X obj 692 598 line~;
#X obj 692 573 pack;
#X obj 692 405 metro;
#X obj 692 457 t b b;
#X obj 779 507 random 1000;
#X obj 691 626 -~ 100;
#X obj 698 662 *~ -1;
#X obj 677 715 /~ 100;
#X obj 749 715 /~ 100;
#X obj 692 351 loadbang;
#X obj 762 389 random 1000;
#X obj 762 357 metro 200;
#X obj 762 324 loadbang;
#X obj 663 860 throw~ Left;
#X obj 729 836 throw~ Right;
#X obj 662 771 *~;
#X obj 728 767 *~;
#X obj 497 570 +;
#X obj 497 521 random 100;
#X msg 593 550 100;
#X obj 593 583 -;
#X obj 593 522 t b f;
#X obj 593 501 * 2;
#X obj 599 624 sig~ 6000;
#X obj 992 783 vcf~;
#X msg 1013 756 1;
#X obj 1013 729 loadbang;
#X obj 1095 679 line~;
#X obj 1095 654 pack;
#X obj 1095 486 metro;
#X obj 1095 538 t b b;
#X obj 1182 588 random 1000;
#X obj 1094 707 -~ 100;
#X obj 1101 743 *~ -1;
#X obj 1080 796 /~ 100;
#X obj 1152 796 /~ 100;
#X obj 1095 432 loadbang;
#X obj 1165 470 random 1000;
#X obj 1165 438 metro 200;
#X obj 1165 405 loadbang;
#X obj 1066 941 throw~ Left;
#X obj 1132 917 throw~ Right;
#X obj 1065 852 *~;
#X obj 1131 848 *~;
#X obj 900 651 +;
#X obj 900 602 random 100;
#X msg 996 631 100;
#X obj 996 664 -;
#X obj 996 603 t b f;
#X obj 996 582 * 2;
#X obj 1002 705 sig~ 12000;
#X obj 512 467 r mono @hv_param 0 50 25;
#X obj 915 548 r mono @hv_param 0 50 25;
#X obj 1824 -159 r mono @hv_param 0 50 25;
#X obj 1304 -159 r mono @hv_param 0 50 25;
#X obj 744 -179 r mono @hv_param 0 50 25;
#X obj 190 -142 r mono @hv_param 0 50 25;
#X obj 256 -776 r mono @hv_param 0 50 25;
#X obj 674 -797 r mono @hv_param 0 50 25;
#X obj 1070 -754 r mono @hv_param 0 50 25;
#X obj 1664 -809 r mono @hv_param 0 50 25;
#X obj 499 -661 *;
#X obj 543 -652 r time @hv_param 1 5 2;
#X obj 909 -758 r time @hv_param 1 5 2;
#X obj 918 -695 *;
#X obj 1445 -689 r time @hv_param 1 5 2;
#X obj 1411 -698 *;
#X obj 1978 -793 r time @hv_param 1 5 2;
#X obj 1941 -709 *;
#X obj 2087 -151 r time @hv_param 1 5 2;
#X obj 2085 -80 *;
#X obj 1589 -139 r time @hv_param 1 5 2;
#X obj 1569 -64 *;
#X obj 1109 -139 r time @hv_param 1 5 2;
#X obj 1020 -96 *;
#X obj 474 -139 r time @hv_param 1 5 2;
#X obj 457 -75 *;
#X obj 789 449 r time @hv_param 1 5 2;
#X obj 779 534 *;
#X obj 1248 522 r time @hv_param 1 5 2;
#X obj 1182 616 *;
#X connect 0 0 98 0;
#X connect 0 0 99 0;
#X connect 1 0 0 2;
#X connect 2 0 1 0;
#X connect 3 0 0 1;
#X connect 4 0 81 0;
#X connect 4 0 82 0;
#X connect 5 0 4 2;
#X connect 6 0 5 0;
#X connect 7 0 65 0;
#X connect 7 0 64 0;
#X connect 8 0 7 2;
#X connect 9 0 8 0;
#X connect 10 0 47 0;
#X connect 10 0 48 0;
#X connect 11 0 10 2;
#X connect 12 0 11 0;
#X connect 13 0 115 0;
#X connect 13 0 116 0;
#X connect 14 0 13 2;
#X connect 15 0 14 0;
#X connect 16 0 132 0;
#X connect 16 0 133 0;
#X connect 17 0 16 2;
#X connect 18 0 17 0;
#X connect 19 0 149 0;
#X connect 19 0 150 0;
#X connect 20 0 19 2;
#X connect 21 0 20 0;
#X connect 22 0 166 0;
#X connect 22 0 167 0;
#X connect 23 0 22 2;
#X connect 24 0 23 0;
#X connect 25 0 4 1;
#X connect 26 0 7 1;
#X connect 27 0 10 1;
#X connect 28 0 13 1;
#X connect 29 0 16 1;
#X connect 30 0 19 1;
#X connect 31 0 22 1;
#X connect 32 0 37 0;
#X connect 32 0 39 0;
#X connect 33 0 32 0;
#X connect 34 0 35 0;
#X connect 35 0 194 0;
#X connect 35 1 36 0;
#X connect 36 0 290 0;
#X connect 37 0 38 0;
#X connect 38 0 40 0;
#X connect 39 0 47 1;
#X connect 40 0 48 1;
#X connect 41 0 34 0;
#X connect 42 0 34 1;
#X connect 43 0 42 0;
#X connect 44 0 43 0;
#X connect 47 0 45 0;
#X connect 48 0 46 0;
#X connect 49 0 54 0;
#X connect 49 0 56 0;
#X connect 50 0 49 0;
#X connect 51 0 52 0;
#X connect 52 0 200 0;
#X connect 52 1 53 0;
#X connect 53 0 292 0;
#X connect 54 0 55 0;
#X connect 55 0 57 0;
#X connect 56 0 64 1;
#X connect 57 0 65 1;
#X connect 58 0 51 0;
#X connect 59 0 51 1;
#X connect 60 0 59 0;
#X connect 61 0 60 0;
#X connect 64 0 62 0;
#X connect 65 0 63 0;
#X connect 66 0 71 0;
#X connect 66 0 73 0;
#X connect 67 0 66 0;
#X connect 68 0 69 0;
#X connect 69 0 206 0;
#X connect 69 1 70 0;
#X connect 70 0 294 0;
#X connect 71 0 72 0;
#X connect 72 0 74 0;
#X connect 73 0 81 1;
#X connect 74 0 82 1;
#X connect 75 0 68 0;
#X connect 76 0 68 1;
#X connect 77 0 76 0;
#X connect 78 0 77 0;
#X connect 81 0 79 0;
#X connect 82 0 80 0;
#X connect 83 0 88 0;
#X connect 83 0 90 0;
#X connect 84 0 83 0;
#X connect 85 0 86 0;
#X connect 86 0 212 0;
#X connect 86 1 87 0;
#X connect 87 0 296 0;
#X connect 88 0 89 0;
#X connect 89 0 91 0;
#X connect 90 0 98 1;
#X connect 91 0 99 1;
#X connect 92 0 85 0;
#X connect 93 0 85 1;
#X connect 94 0 93 0;
#X connect 95 0 94 0;
#X connect 98 0 96 0;
#X connect 99 0 97 0;
#X connect 100 0 105 0;
#X connect 100 0 107 0;
#X connect 101 0 100 0;
#X connect 102 0 103 0;
#X connect 103 0 170 0;
#X connect 103 1 104 0;
#X connect 104 0 281 0;
#X connect 105 0 106 0;
#X connect 106 0 108 0;
#X connect 107 0 115 1;
#X connect 108 0 116 1;
#X connect 109 0 102 0;
#X connect 110 0 102 1;
#X connect 111 0 110 0;
#X connect 112 0 111 0;
#X connect 115 0 113 0;
#X connect 116 0 114 0;
#X connect 117 0 122 0;
#X connect 117 0 124 0;
#X connect 118 0 117 0;
#X connect 119 0 120 0;
#X connect 120 0 176 0;
#X connect 120 1 121 0;
#X connect 121 0 284 0;
#X connect 122 0 123 0;
#X connect 123 0 125 0;
#X connect 124 0 132 1;
#X connect 125 0 133 1;
#X connect 126 0 119 0;
#X connect 127 0 119 1;
#X connect 128 0 127 0;
#X connect 129 0 128 0;
#X connect 132 0 130 0;
#X connect 133 0 131 0;
#X connect 134 0 139 0;
#X connect 134 0 141 0;
#X connect 135 0 134 0;
#X connect 136 0 137 0;
#X connect 137 0 182 0;
#X connect 137 1 138 0;
#X connect 138 0 286 0;
#X connect 139 0 140 0;
#X connect 140 0 142 0;
#X connect 141 0 149 1;
#X connect 142 0 150 1;
#X connect 143 0 136 0;
#X connect 144 0 136 1;
#X connect 145 0 144 0;
#X connect 146 0 145 0;
#X connect 149 0 147 0;
#X connect 150 0 148 0;
#X connect 151 0 156 0;
#X connect 151 0 158 0;
#X connect 152 0 151 0;
#X connect 153 0 154 0;
#X connect 154 0 188 0;
#X connect 154 1 155 0;
#X connect 155 0 288 0;
#X connect 156 0 157 0;
#X connect 157 0 159 0;
#X connect 158 0 166 1;
#X connect 159 0 167 1;
#X connect 160 0 153 0;
#X connect 161 0 153 1;
#X connect 162 0 161 0;
#X connect 163 0 162 0;
#X connect 166 0 164 0;
#X connect 167 0 165 0;
#X connect 168 0 13 0;
#X connect 168 0 16 0;
#X connect 168 0 19 0;
#X connect 168 0 22 0;
#X connect 168 0 4 0;
#X connect 168 0 0 0;
#X connect 168 0 7 0;
#X connect 168 0 10 0;
#X connect 168 0 217 0;
#X connect 168 0 244 0;
#X connect 169 0 101 0;
#X connect 170 0 169 0;
#X connect 171 0 172 0;
#X connect 172 0 170 1;
#X connect 173 0 171 0;
#X connect 173 1 172 1;
#X connect 174 0 173 0;
#X connect 175 0 118 0;
#X connect 176 0 175 0;
#X connect 177 0 178 0;
#X connect 178 0 176 1;
#X connect 179 0 177 0;
#X connect 179 1 178 1;
#X connect 180 0 179 0;
#X connect 181 0 135 0;
#X connect 182 0 181 0;
#X connect 183 0 184 0;
#X connect 184 0 182 1;
#X connect 185 0 183 0;
#X connect 185 1 184 1;
#X connect 186 0 185 0;
#X connect 187 0 152 0;
#X connect 188 0 187 0;
#X connect 189 0 190 0;
#X connect 190 0 188 1;
#X connect 191 0 189 0;
#X connect 191 1 190 1;
#X connect 192 0 191 0;
#X connect 193 0 33 0;
#X connect 194 0 193 0;
#X connect 195 0 196 0;
#X connect 196 0 194 1;
#X connect 197 0 195 0;
#X connect 197 1 196 1;
#X connect 198 0 197 0;
#X connect 199 0 50 0;
#X connect 200 0 199 0;
#X connect 201 0 202 0;
#X connect 202 0 200 1;
#X connect 203 0 201 0;
#X connect 203 1 202 1;
#X connect 204 0 203 0;
#X connect 205 0 67 0;
#X connect 206 0 205 0;
#X connect 207 0 208 0;
#X connect 208 0 206 1;
#X connect 209 0 207 0;
#X connect 209 1 208 1;
#X connect 210 0 209 0;
#X connect 211 0 84 0;
#X connect 212 0 211 0;
#X connect 213 0 214 0;
#X connect 214 0 212 1;
#X connect 215 0 213 0;
#X connect 215 1 214 1;
#X connect 216 0 215 0;
#X connect 217 0 235 0;
#X connect 217 0 236 0;
#X connect 218 0 217 2;
#X connect 219 0 218 0;
#X connect 220 0 225 0;
#X connect 220 0 227 0;
#X connect 221 0 220 0;
#X connect 222 0 223 0;
#X connect 223 0 238 0;
#X connect 223 1 224 0;
#X connect 224 0 298 0;
#X connect 225 0 226 0;
#X connect 226 0 228 0;
#X connect 227 0 235 1;
#X connect 228 0 236 1;
#X connect 229 0 222 0;
#X connect 230 0 222 1;
#X connect 231 0 230 0;
#X connect 232 0 231 0;
#X connect 235 0 233 0;
#X connect 236 0 234 0;
#X connect 237 0 221 0;
#X connect 238 0 237 0;
#X connect 239 0 240 0;
#X connect 240 0 238 1;
#X connect 241 0 239 0;
#X connect 241 1 240 1;
#X connect 242 0 241 0;
#X connect 243 0 217 1;
#X connect 244 0 262 0;
#X connect 244 0 263 0;
#X connect 245 0 244 2;
#X connect 246 0 245 0;
#X connect 247 0 252 0;
#X connect 247 0 254 0;
#X connect 248 0 247 0;
#X connect 249 0 250 0;
#X connect 250 0 265 0;
#X connect 250 1 251 0;
#X connect 251 0 300 0;
#X connect 252 0 253 0;
#X connect 253 0 255 0;
#X connect 254 0 262 1;
#X connect 255 0 263 1;
#X connect 256 0 249 0;
#X connect 257 0 249 1;
#X connect 258 0 257 0;
#X connect 259 0 258 0;
#X connect 262 0 260 0;
#X connect 263 0 261 0;
#X connect 264 0 248 0;
#X connect 265 0 264 0;
#X connect 266 0 267 0;
#X connect 267 0 265 1;
#X connect 268 0 266 0;
#X connect 268 1 267 1;
#X connect 269 0 268 0;
#X connect 270 0 244 1;
#X connect 271 0 237 1;
#X connect 271 0 242 0;
#X connect 272 0 264 1;
#X connect 272 0 269 0;
#X connect 273 0 193 1;
#X connect 273 0 198 0;
#X connect 274 0 199 1;
#X connect 274 0 204 0;
#X connect 275 0 205 1;
#X connect 275 0 210 0;
#X connect 276 0 211 1;
#X connect 276 0 216 0;
#X connect 277 0 169 1;
#X connect 277 0 174 0;
#X connect 278 0 175 1;
#X connect 278 0 180 0;
#X connect 279 0 181 1;
#X connect 279 0 186 0;
#X connect 280 0 187 1;
#X connect 280 0 192 0;
#X connect 281 0 101 1;
#X connect 282 0 281 1;
#X connect 283 0 284 1;
#X connect 284 0 118 1;
#X connect 285 0 286 1;
#X connect 286 0 135 1;
#X connect 287 0 288 1;
#X connect 288 0 152 1;
#X connect 289 0 290 1;
#X connect 290 0 33 1;
#X connect 291 0 292 1;
#X connect 292 0 50 1;
#X connect 293 0 294 1;
#X connect 294 0 67 1;
#X connect 295 0 296 1;
#X connect 296 0 84 1;
#X connect 297 0 298 1;
#X connect 298 0 221 1;
#X connect 299 0 300 1;
#X connect 300 0 248 1;
#X restore 610 -1 pd vcf;
#N canvas 0 75 1280 703 vcf 0;
#X obj 267 93 vcf~;
#X msg 288 66 1;
#X obj 288 39 loadbang;
#X obj 277 15 sig~ 24;
#X obj 838 52 vcf~;
#X msg 859 25 1;
#X obj 859 -2 loadbang;
#X obj 1381 104 vcf~;
#X msg 1402 77 1;
#X obj 1402 50 loadbang;
#X obj 1879 97 vcf~;
#X msg 1900 70 1;
#X obj 1900 43 loadbang;
#X obj 309 -528 vcf~;
#X msg 330 -555 1;
#X obj 330 -582 loadbang;
#X obj 723 -531 vcf~;
#X msg 744 -558 1;
#X obj 744 -585 loadbang;
#X obj 1210 -553 vcf~;
#X msg 1231 -580 1;
#X obj 1231 -607 loadbang;
#X obj 1728 -564 vcf~;
#X msg 1749 -594 1;
#X obj 1749 -621 loadbang;
#X obj 848 -26 sig~ 48;
#X obj 1391 26 sig~ 96;
#X obj 1889 19 sig~ 190;
#X obj 319 -606 sig~ 375;
#X obj 733 -609 sig~ 750;
#X obj 1220 -631 sig~ 1500;
#X obj 1738 -642 sig~ 3000;
#X obj 1998 -17 line~;
#X obj 1998 -42 pack;
#X obj 1998 -210 metro;
#X obj 1998 -158 t b b;
#X obj 2085 -108 random 1000;
#X obj 1997 11 -~ 100;
#X obj 2004 47 *~ -1;
#X obj 1983 100 /~ 100;
#X obj 2055 100 /~ 100;
#X obj 1998 -264 loadbang;
#X obj 2068 -226 random 1000;
#X obj 2068 -258 metro 200;
#X obj 2068 -291 loadbang;
#X obj 1969 245 throw~ Left;
#X obj 2035 221 throw~ Right;
#X obj 1968 156 *~;
#X obj 2034 152 *~;
#X obj 1482 0 line~;
#X obj 1482 -25 pack;
#X obj 1482 -193 metro;
#X obj 1482 -141 t b b;
#X obj 1569 -91 random 1000;
#X obj 1481 28 -~ 100;
#X obj 1488 64 *~ -1;
#X obj 1467 117 /~ 100;
#X obj 1539 117 /~ 100;
#X obj 1482 -247 loadbang;
#X obj 1552 -209 random 1000;
#X obj 1552 -241 metro 200;
#X obj 1552 -274 loadbang;
#X obj 1453 262 throw~ Left;
#X obj 1519 238 throw~ Right;
#X obj 1452 173 *~;
#X obj 1518 169 *~;
#X obj 933 -32 line~;
#X obj 933 -57 pack;
#X obj 933 -225 metro;
#X obj 933 -173 t b b;
#X obj 1020 -123 random 1000;
#X obj 932 -4 -~ 100;
#X obj 939 32 *~ -1;
#X obj 918 85 /~ 100;
#X obj 990 85 /~ 100;
#X obj 933 -279 loadbang;
#X obj 1003 -241 random 1000;
#X obj 1003 -273 metro 200;
#X obj 1003 -306 loadbang;
#X obj 904 230 throw~ Left;
#X obj 970 206 throw~ Right;
#X obj 903 141 *~;
#X obj 969 137 *~;
#X obj 370 -11 line~;
#X obj 370 -36 pack;
#X obj 370 -204 metro;
#X obj 370 -152 t b b;
#X obj 457 -102 random 1000;
#X obj 369 17 -~ 100;
#X obj 376 53 *~ -1;
#X obj 355 106 /~ 100;
#X obj 427 106 /~ 100;
#X obj 370 -258 loadbang;
#X obj 440 -220 random 1000;
#X obj 440 -252 metro 200;
#X obj 440 -285 loadbang;
#X obj 341 251 throw~ Left;
#X obj 407 227 throw~ Right;
#X obj 340 162 *~;
#X obj 406 158 *~;
#X obj 425 -622 line~;
#X obj 425 -647 pack;
#X obj 425 -815 metro;
#X obj 425 -763 t b b;
#X obj 512 -713 random 1000;
#X obj 424 -594 -~ 100;
#X obj 431 -558 *~ -1;
#X obj 410 -505 /~ 100;
#X obj 482 -505 /~ 100;
#X obj 425 -869 loadbang;
#X obj 495 -831 random 1000;
#X obj 495 -863 metro 200;
#X obj 495 -896 loadbang;
#X obj 396 -360 throw~ Left;
#X obj 462 -384 throw~ Right;
#X obj 395 -449 *~;
#X obj 461 -453 *~;
#X obj 831 -631 line~;
#X obj 831 -656 pack;
#X obj 831 -824 metro;
#X obj 831 -769 t b b;
#X obj 918 -722 random 1000;
#X obj 830 -603 -~ 100;
#X obj 837 -567 *~ -1;
#X obj 816 -514 /~ 100;
#X obj 888 -514 /~ 100;
#X obj 831 -878 loadbang;
#X obj 901 -840 random 1000;
#X obj 901 -872 metro 200;
#X obj 901 -905 loadbang;
#X obj 802 -369 throw~ Left;
#X obj 868 -393 throw~ Right;
#X obj 801 -458 *~;
#X obj 867 -462 *~;
#X obj 1324 -634 line~;
#X obj 1324 -659 pack;
#X obj 1324 -827 metro;
#X obj 1324 -775 t b b;
#X obj 1411 -725 random 1000;
#X obj 1323 -606 -~ 100;
#X obj 1330 -570 *~ -1;
#X obj 1309 -517 /~ 100;
#X obj 1381 -517 /~ 100;
#X obj 1324 -881 loadbang;
#X obj 1394 -843 random 1000;
#X obj 1394 -875 metro 200;
#X obj 1394 -908 loadbang;
#X obj 1295 -372 throw~ Left;
#X obj 1361 -396 throw~ Right;
#X obj 1294 -461 *~;
#X obj 1360 -465 *~;
#X obj 1854 -645 line~;
#X obj 1854 -670 pack;
#X obj 1854 -838 metro;
#X obj 1854 -786 t b b;
#X obj 1941 -736 random 1000;
#X obj 1853 -617 -~ 100;
#X obj 1860 -581 *~ -1;
#X obj 1839 -528 /~ 100;
#X obj 1911 -528 /~ 100;
#X obj 1854 -892 loadbang;
#X obj 1924 -854 random 1000;
#X obj 1924 -886 metro 200;
#X obj 1924 -919 loadbang;
#X obj 1825 -383 throw~ Left;
#X obj 1891 -407 throw~ Right;
#X obj 1824 -472 *~;
#X obj 1890 -476 *~;
#X obj 896 391 inlet~;
#X obj 241 -673 +;
#X obj 241 -722 random 100;
#X msg 337 -693 100;
#X obj 337 -660 -;
#X obj 337 -721 t b f;
#X obj 337 -742 * 2;
#X obj 659 -694 +;
#X obj 659 -743 random 100;
#X msg 755 -714 100;
#X obj 755 -681 -;
#X obj 755 -742 t b f;
#X obj 755 -763 * 2;
#X obj 1055 -651 +;
#X obj 1055 -700 random 100;
#X msg 1151 -671 100;
#X obj 1151 -638 -;
#X obj 1151 -699 t b f;
#X obj 1151 -720 * 2;
#X obj 1649 -706 +;
#X obj 1649 -755 random 100;
#X msg 1745 -726 100;
#X obj 1745 -693 -;
#X obj 1745 -754 t b f;
#X obj 1745 -775 * 2;
#X obj 1809 -56 +;
#X obj 1809 -105 random 100;
#X msg 1905 -76 100;
#X obj 1905 -43 -;
#X obj 1905 -104 t b f;
#X obj 1905 -125 * 2;
#X obj 1289 -56 +;
#X obj 1289 -105 random 100;
#X msg 1385 -76 100;
#X obj 1385 -43 -;
#X obj 1385 -104 t b f;
#X obj 1385 -125 * 2;
#X obj 729 -76 +;
#X obj 729 -125 random 100;
#X msg 825 -96 100;
#X obj 825 -63 -;
#X obj 825 -124 t b f;
#X obj 825 -145 * 2;
#X obj 175 -39 +;
#X obj 175 -88 random 100;
#X msg 271 -59 100;
#X obj 271 -26 -;
#X obj 271 -87 t b f;
#X obj 271 -108 * 2;
#X obj 589 702 vcf~;
#X msg 610 675 1;
#X obj 610 648 loadbang;
#X obj 692 598 line~;
#X obj 692 573 pack;
#X obj 692 405 metro;
#X obj 692 457 t b b;
#X obj 779 507 random 1000;
#X obj 691 626 -~ 100;
#X obj 698 662 *~ -1;
#X obj 677 715 /~ 100;
#X obj 749 715 /~ 100;
#X obj 692 351 loadbang;
#X obj 762 389 random 1000;
#X obj 762 357 metro 200;
#X obj 762 324 loadbang;
#X obj 663 860 throw~ Left;
#X obj 729 836 throw~ Right;
#X obj 662 771 *~;
#X obj 728 767 *~;
#X obj 497 570 +;
#X obj 497 521 random 100;
#X msg 593 550 100;
#X obj 593 583 -;
#X obj 593 522 t b f;
#X obj 593 501 * 2;
#X obj 599 624 sig~ 6000;
#X obj 992 783 vcf~;
#X msg 1013 756 1;
#X obj 1013 729 loadbang;
#X obj 1095 679 line~;
#X obj 1095 654 pack;
#X obj 1095 486 metro;
#X obj 1095 538 t b b;
#X obj 1182 588 random 1000;
#X obj 1094 707 -~ 100;
#X obj 1101 743 *~ -1;
#X obj 1080 796 /~ 100;
#X obj 1152 796 /~ 100;
#X obj 1095 432 loadbang;
#X obj 1165 470 random 1000;
#X obj 1165 438 metro 200;
#X obj 1165 405 loadbang;
#X obj 1066 941 throw~ Left;
#X obj 1132 917 throw~ Right;
#X obj 1065 852 *~;
#X obj 1131 848 *~;
#X obj 900 651 +;
#X obj 900 602 random 100;
#X msg 996 631 100;
#X obj 996 664 -;
#X obj 996 603 t b f;
#X obj 996 582 * 2;
#X obj 1002 705 sig~ 12000;
#X obj 512 467 r mono @hv_param 0 50 25;
#X obj 915 548 r mono @hv_param 0 50 25;
#X obj 1824 -159 r mono @hv_param 0 50 25;
#X obj 1304 -159 r mono @hv_param 0 50 25;
#X obj 744 -179 r mono @hv_param 0 50 25;
#X obj 190 -142 r mono @hv_param 0 50 25;
#X obj 256 -776 r mono @hv_param 0 50 25;
#X obj 674 -797 r mono @hv_param 0 50 25;
#X obj 1070 -754 r mono @hv_param 0 50 25;
#X obj 1664 -809 r mono @hv_param 0 50 25;
#X obj 499 -661 *;
#X obj 543 -652 r time @hv_param 1 5 2;
#X obj 909 -758 r time @hv_param 1 5 2;
#X obj 918 -695 *;
#X obj 1445 -689 r time @hv_param 1 5 2;
#X obj 1411 -698 *;
#X obj 1978 -793 r time @hv_param 1 5 2;
#X obj 1941 -709 *;
#X obj 2087 -151 r time @hv_param 1 5 2;
#X obj 2085 -80 *;
#X obj 1589 -139 r time @hv_param 1 5 2;
#X obj 1569 -64 *;
#X obj 1109 -139 r time @hv_param 1 5 2;
#X obj 1020 -96 *;
#X obj 474 -139 r time @hv_param 1 5 2;
#X obj 457 -75 *;
#X obj 789 449 r time @hv_param 1 5 2;
#X obj 779 534 *;
#X obj 1248 522 r time @hv_param 1 5 2;
#X obj 1182 616 *;
#X connect 0 0 98 0;
#X connect 0 0 99 0;
#X connect 1 0 0 2;
#X connect 2 0 1 0;
#X connect 3 0 0 1;
#X connect 4 0 81 0;
#X connect 4 0 82 0;
#X connect 5 0 4 2;
#X connect 6 0 5 0;
#X connect 7 0 65 0;
#X connect 7 0 64 0;
#X connect 8 0 7 2;
#X connect 9 0 8 0;
#X connect 10 0 47 0;
#X connect 10 0 48 0;
#X connect 11 0 10 2;
#X connect 12 0 11 0;
#X connect 13 0 115 0;
#X connect 13 0 116 0;
#X connect 14 0 13 2;
#X connect 15 0 14 0;
#X connect 16 0 132 0;
#X connect 16 0 133 0;
#X connect 17 0 16 2;
#X connect 18 0 17 0;
#X connect 19 0 149 0;
#X connect 19 0 150 0;
#X connect 20 0 19 2;
#X connect 21 0 20 0;
#X connect 22 0 166 0;
#X connect 22 0 167 0;
#X connect 23 0 22 2;
#X connect 24 0 23 0;
#X connect 25 0 4 1;
#X connect 26 0 7 1;
#X connect 27 0 10 1;
#X connect 28 0 13 1;
#X connect 29 0 16 1;
#X connect 30 0 19 1;
#X connect 31 0 22 1;
#X connect 32 0 37 0;
#X connect 32 0 39 0;
#X connect 33 0 32 0;
#X connect 34 0 35 0;
#X connect 35 0 194 0;
#X connect 35 1 36 0;
#X connect 36 0 290 0;
#X connect 37 0 38 0;
#X connect 38 0 40 0;
#X connect 39 0 47 1;
#X connect 40 0 48 1;
#X connect 41 0 34 0;
#X connect 42 0 34 1;
#X connect 43 0 42 0;
#X connect 44 0 43 0;
#X connect 47 0 45 0;
#X connect 48 0 46 0;
#X connect 49 0 54 0;
#X connect 49 0 56 0;
#X connect 50 0 49 0;
#X connect 51 0 52 0;
#X connect 52 0 200 0;
#X connect 52 1 53 0;
#X connect 53 0 292 0;
#X connect 54 0 55 0;
#X connect 55 0 57 0;
#X connect 56 0 64 1;
#X connect 57 0 65 1;
#X connect 58 0 51 0;
#X connect 59 0 51 1;
#X connect 60 0 59 0;
#X connect 61 0 60 0;
#X connect 64 0 62 0;
#X connect 65 0 63 0;
#X connect 66 0 71 0;
#X connect 66 0 73 0;
#X connect 67 0 66 0;
#X connect 68 0 69 0;
#X connect 69 0 206 0;
#X connect 69 1 70 0;
#X connect 70 0 294 0;
#X connect 71 0 72 0;
#X connect 72 0 74 0;
#X connect 73 0 81 1;
#X connect 74 0 82 1;
#X connect 75 0 68 0;
#X connect 76 0 68 1;
#X connect 77 0 76 0;
#X connect 78 0 77 0;
#X connect 81 0 79 0;
#X connect 82 0 80 0;
#X connect 83 0 88 0;
#X connect 83 0 90 0;
#X connect 84 0 83 0;
#X connect 85 0 86 0;
#X connect 86 0 212 0;
#X connect 86 1 87 0;
#X connect 87 0 296 0;
#X connect 88 0 89 0;
#X connect 89 0 91 0;
#X connect 90 0 98 1;
#X connect 91 0 99 1;
#X connect 92 0 85 0;
#X connect 93 0 85 1;
#X connect 94 0 93 0;
#X connect 95 0 94 0;
#X connect 98 0 96 0;
#X connect 99 0 97 0;
#X connect 100 0 105 0;
#X connect 100 0 107 0;
#X connect 101 0 100 0;
#X connect 102 0 103 0;
#X connect 103 0 170 0;
#X connect 103 1 104 0;
#X connect 104 0 281 0;
#X connect 105 0 106 0;
#X connect 106 0 108 0;
#X connect 107 0 115 1;
#X connect 108 0 116 1;
#X connect 109 0 102 0;
#X connect 110 0 102 1;
#X connect 111 0 110 0;
#X connect 112 0 111 0;
#X connect 115 0 113 0;
#X connect 116 0 114 0;
#X connect 117 0 122 0;
#X connect 117 0 124 0;
#X connect 118 0 117 0;
#X connect 119 0 120 0;
#X connect 120 0 176 0;
#X connect 120 1 121 0;
#X connect 121 0 284 0;
#X connect 122 0 123 0;
#X connect 123 0 125 0;
#X connect 124 0 132 1;
#X connect 125 0 133 1;
#X connect 126 0 119 0;
#X connect 127 0 119 1;
#X connect 128 0 127 0;
#X connect 129 0 128 0;
#X connect 132 0 130 0;
#X connect 133 0 131 0;
#X connect 134 0 139 0;
#X connect 134 0 141 0;
#X connect 135 0 134 0;
#X connect 136 0 137 0;
#X connect 137 0 182 0;
#X connect 137 1 138 0;
#X connect 138 0 286 0;
#X connect 139 0 140 0;
#X connect 140 0 142 0;
#X connect 141 0 149 1;
#X connect 142 0 150 1;
#X connect 143 0 136 0;
#X connect 144 0 136 1;
#X connect 145 0 144 0;
#X connect 146 0 145 0;
#X connect 149 0 147 0;
#X connect 150 0 148 0;
#X connect 151 0 156 0;
#X connect 151 0 158 0;
#X connect 152 0 151 0;
#X connect 153 0 154 0;
#X connect 154 0 188 0;
#X connect 154 1 155 0;
#X connect 155 0 288 0;
#X connect 156 0 157 0;
#X connect 157 0 159 0;
#X connect 158 0 166 1;
#X connect 159 0 167 1;
#X connect 160 0 153 0;
#X connect 161 0 153 1;
#X connect 162 0 161 0;
#X connect 163 0 162 0;
#X connect 166 0 164 0;
#X connect 167 0 165 0;
#X connect 168 0 13 0;
#X connect 168 0 16 0;
#X connect 168 0 19 0;
#X connect 168 0 22 0;
#X connect 168 0 4 0;
#X connect 168 0 0 0;
#X connect 168 0 7 0;
#X connect 168 0 10 0;
#X connect 168 0 217 0;
#X connect 168 0 244 0;
#X connect 169 0 101 0;
#X connect 170 0 169 0;
#X connect 171 0 172 0;
#X connect 172 0 170 1;
#X connect 173 0 171 0;
#X connect 173 1 172 1;
#X connect 174 0 173 0;
#X connect 175 0 118 0;
#X connect 176 0 175 0;
#X connect 177 0 178 0;
#X connect 178 0 176 1;
#X connect 179 0 177 0;
#X connect 179 1 178 1;
#X connect 180 0 179 0;
#X connect 181 0 135 0;
#X connect 182 0 181 0;
#X connect 183 0 184 0;
#X connect 184 0 182 1;
#X connect 185 0 183 0;
#X connect 185 1 184 1;
#X connect 186 0 185 0;
#X connect 187 0 152 0;
#X connect 188 0 187 0;
#X connect 189 0 190 0;
#X connect 190 0 188 1;
#X connect 191 0 189 0;
#X connect 191 1 190 1;
#X connect 192 0 191 0;
#X connect 193 0 33 0;
#X connect 194 0 193 0;
#X connect 195 0 196 0;
#X connect 196 0 194 1;
#X connect 197 0 195 0;
#X connect 197 1 196 1;
#X connect 198 0 197 0;
#X connect 199 0 50 0;
#X connect 200 0 199 0;
#X connect 201 0 202 0;
#X connect 202 0 200 1;
#X connect 203 0 201 0;
#X connect 203 1 202 1;
#X connect 204 0 203 0;
#X connect 205 0 67 0;
#X connect 206 0 205 0;
#X connect 207 0 208 0;
#X connect 208 0 206 1;
#X connect 209 0 207 0;
#X connect 209 1 208 1;
#X connect 210 0 209 0;
#X connect 211 0 84 0;
#X connect 212 0 211 0;
#X connect 213 0 214 0;
#X connect 214 0 212 1;
#X connect 215 0 213 0;
#X connect 215 1 214 1;
#X connect 216 0 215 0;
#X connect 217 0 235 0;
#X connect 217 0 236 0;
#X connect 218 0 217 2;
#X connect 219 0 218 0;
#X connect 220 0 225 0;
#X connect 220 0 227 0;
#X connect 221 0 220 0;
#X connect 222 0 223 0;
#X connect 223 0 238 0;
#X connect 223 1 224 0;
#X connect 224 0 298 0;
#X connect 225 0 226 0;
#X connect 226 0 228 0;
#X connect 227 0 235 1;
#X connect 228 0 236 1;
#X connect 229 0 222 0;
#X connect 230 0 222 1;
#X connect 231 0 230 0;
#X connect 232 0 231 0;
#X connect 235 0 233 0;
#X connect 236 0 234 0;
#X connect 237 0 221 0;
#X connect 238 0 237 0;
#X connect 239 0 240 0;
#X connect 240 0 238 1;
#X connect 241 0 239 0;
#X connect 241 1 240 1;
#X connect 242 0 241 0;
#X connect 243 0 217 1;
#X connect 244 0 262 0;
#X connect 244 0 263 0;
#X connect 245 0 244 2;
#X connect 246 0 245 0;
#X connect 247 0 252 0;
#X connect 247 0 254 0;
#X connect 248 0 247 0;
#X connect 249 0 250 0;
#X connect 250 0 265 0;
#X connect 250 1 251 0;
#X connect 251 0 300 0;
#X connect 252 0 253 0;
#X connect 253 0 255 0;
#X connect 254 0 262 1;
#X connect 255 0 263 1;
#X connect 256 0 249 0;
#X connect 257 0 249 1;
#X connect 258 0 257 0;
#X connect 259 0 258 0;
#X connect 262 0 260 0;
#X connect 263 0 261 0;
#X connect 264 0 248 0;
#X connect 265 0 264 0;
#X connect 266 0 267 0;
#X connect 267 0 265 1;
#X connect 268 0 266 0;
#X connect 268 1 267 1;
#X connect 269 0 268 0;
#X connect 270 0 244 1;
#X connect 271 0 237 1;
#X connect 271 0 242 0;
#X connect 272 0 264 1;
#X connect 272 0 269 0;
#X connect 273 0 193 1;
#X connect 273 0 198 0;
#X connect 274 0 199 1;
#X connect 274 0 204 0;
#X connect 275 0 205 1;
#X connect 275 0 210 0;
#X connect 276 0 211 1;
#X connect 276 0 216 0;
#X connect 277 0 169 1;
#X connect 277 0 174 0;
#X connect 278 0 175 1;
#X connect 278 0 180 0;
#X connect 279 0 181 1;
#X connect 279 0 186 0;
#X connect 280 0 187 1;
#X connect 280 0 192 0;
#X connect 281 0 101 1;
#X connect 282 0 281 1;
#X connect 283 0 284 1;
#X connect 284 0 118 1;
#X connect 285 0 286 1;
#X connect 286 0 135 1;
#X connect 287 0 288 1;
#X connect 288 0 152 1;
#X connect 289 0 290 1;
#X connect 290 0 33 1;
#X connect 291 0 292 1;
#X connect 292 0 50 1;
#X connect 293 0 294 1;
#X connect 294 0 67 1;
#X connect 295 0 296 1;
#X connect 296 0 84 1;
#X connect 297 0 298 1;
#X connect 298 0 221 1;
#X connect 299 0 300 1;
#X connect 300 0 248 1;
#X restore 471 5 pd vcf;
#X obj 750 5 env~;
#X obj 846 79 route 0 1;
#X msg 829 134 0.06;
#X msg 888 134 0.12;
#X obj 670 283 *~;
#X obj 599 283 *~;
#X obj 846 46 == 0;
#X text 804 403 author: Piotr Goj kretopi@gmail.com;
#X connect 0 0 4 0;
#X connect 0 0 11 0;
#X connect 0 0 10 0;
#X connect 0 1 5 0;
#X connect 0 1 10 0;
#X connect 0 1 11 0;
#X connect 0 1 12 0;
#X connect 2 0 17 0;
#X connect 3 0 16 0;
#X connect 4 0 1 0;
#X connect 5 0 1 1;
#X connect 6 0 4 1;
#X connect 6 0 5 1;
#X connect 7 0 1 0;
#X connect 8 0 1 1;
#X connect 9 0 7 1;
#X connect 9 0 8 1;
#X connect 12 0 18 0;
#X connect 13 0 14 0;
#X connect 13 1 15 0;
#X connect 14 0 16 1;
#X connect 14 0 17 1;
#X connect 15 0 16 1;
#X connect 15 0 17 1;
#X connect 16 0 8 0;
#X connect 17 0 7 0;
#X connect 18 0 13 0;
