#N canvas 300 87 852 691 10;
#N canvas 284 27 996 751 (subpatch) 1;
#N canvas 0 22 450 300 about 0;
#X text 98 108 Guns by Piotr Goj \, kretopi@gmail.com;
#X restore 829 7 pd about;
#X obj 1 1 cnv 15 80 203 empty empty empty 20 12 0 14 -236430 -66577
0;
#X obj 81 1 cnv 15 200 203 empty empty empty 20 12 0 14 -96640 -66577
0;
#X obj 282 1 cnv 15 117 203 empty empty empty 20 12 0 14 -81482 -66577
0;
#X obj 576 56 noise~;
#X obj 646 161 lop~;
#X floatatom 108 149 5 0 20000 2 low_pass_filter low-r low-s;
#X obj 754 477 line~;
#X obj 625 569 *~;
#X obj 754 276 pack 1 f;
#X floatatom 313 36 5 0 100 2 attack_time Attack-r Attack-s;
#X obj 799 243 t f f;
#X obj 811 279 del;
#X obj 19 8 bng 15 250 50 0 empty empty play 17 7 0 10 -262144 -1 -1
;
#X floatatom 313 71 5 0 10 2 decay_volume Decay-r Decay-s;
#X obj 862 344 / 10;
#X obj 811 302 t b b;
#X obj 895 459 pack 0 f;
#X floatatom 313 141 5 0 10000 2 release_time Release-r Release-s;
#X obj 617 678 dac~;
#X obj 563 159 bp~, f 5;
#X floatatom 104 72 5 0 20000 2 band_pass_filter Bp-r Bp-s;
#X floatatom 208 76 5 0 1000 2 Q/100 Q-r Q-s;
#X obj 590 133 / 100;
#X obj 520 164 hip~;
#X floatatom 99 19 5 0 20000 2 high_pass_filter High-r High-s;
#X obj 735 242 t b b b;
#X obj 570 218 *~;
#X obj 654 483 *~;
#X obj 520 250 *~;
#X obj 811 364 f;
#X obj 685 133 r low-s;
#X obj 627 640 clip~ -1 1;
#X obj 627 606 *~;
#X obj 148 171 hsl 128 15 0 500 0 0 LowVol-s LowVol-r Low_Volume -2
-8 0 10 -262144 -1 -1 9703 1;
#X obj 669 435 / 127;
#X obj 669 458 *;
#X obj 112 106 hsl 128 15 0 127 0 0 BpVol-s BpVol-r Band_Volume -2
-8 0 10 -262144 -1 -1 5500 1;
#X obj 602 179 / 127;
#X obj 599 201 *;
#X obj 142 35 hsl 128 15 0 127 0 0 HighVol-s HighVol-r High_Volume
-2 -8 0 10 -262144 -1 -1 600 1;
#X obj 534 201 / 127;
#X obj 533 225 *;
#X obj 811 388 pack f 0;
#X obj 19 39 bng 15 250 50 0 empty empty reset 17 7 0 10 -262144 -1
-1;
#X obj 662 586 * 5;
#N canvas 38 239 623 451 reset 0;
#X obj 51 77 inlet;
#X msg 253 260 5;
#X obj 265 13 loadbang;
#X msg 214 258 200;
#X obj 144 279 s low-r;
#X msg 285 260 600;
#X msg 328 260 1000;
#X msg 380 260 6;
#X msg 423 260 4;
#X msg 461 258 150;
#X obj 193 306 s Q-r;
#X msg 144 314 0.2;
#X obj 147 343 s Master-r;
#X obj 216 285 s Bp-r;
#X obj 272 284 s High-r;
#X obj 346 320 s Attack-r;
#X obj 443 307 s Decay-r;
#X obj 551 334 s Release-r;
#X msg 530 237 55;
#X msg 554 193 382;
#X msg 542 118 6;
#X obj 530 258 s BpVol-r;
#X obj 554 215 s LowVol-r;
#X obj 541 140 s HighVol-r;
#X obj 349 12 del 5;
#X connect 0 0 3 0;
#X connect 0 0 9 0;
#X connect 0 0 8 0;
#X connect 0 0 7 0;
#X connect 0 0 6 0;
#X connect 0 0 5 0;
#X connect 0 0 1 0;
#X connect 0 0 11 0;
#X connect 0 0 18 0;
#X connect 0 0 20 0;
#X connect 0 0 19 0;
#X connect 1 0 10 0;
#X connect 2 0 1 0;
#X connect 2 0 3 0;
#X connect 2 0 5 0;
#X connect 2 0 6 0;
#X connect 2 0 7 0;
#X connect 2 0 9 0;
#X connect 2 0 8 0;
#X connect 2 0 11 0;
#X connect 2 0 20 0;
#X connect 2 0 19 0;
#X connect 2 0 18 0;
#X connect 2 0 24 0;
#X connect 3 0 4 0;
#X connect 5 0 13 0;
#X connect 6 0 14 0;
#X connect 7 0 15 0;
#X connect 8 0 16 0;
#X connect 9 0 17 0;
#X connect 11 0 12 0;
#X connect 18 0 21 0;
#X connect 19 0 22 0;
#X connect 20 0 23 0;
#X connect 24 0 20 0;
#X connect 24 0 19 0;
#X connect 24 0 18 0;
#X connect 24 0 6 0;
#X connect 24 0 9 0;
#X connect 24 0 8 0;
#X connect 24 0 7 0;
#X connect 24 0 5 0;
#X connect 24 0 3 0;
#X connect 24 0 1 0;
#X connect 24 0 11 0;
#X restore 2 287 pd reset;
#X obj 626 97 r Q-s;
#X obj 518 109 r Bp-s;
#X obj 491 137 r High-s;
#X obj 798 213 r Attack-s;
#X obj 869 309 r Decay-s;
#X obj 912 418 r Release-s;
#N canvas 425 262 689 478 param 0;
#X obj 15 151 param.change;
#X obj 8 364 s low-r;
#X obj 8 386 r low-s;
#X obj 8 300 param.get 2;
#X obj 7 408 param.set 2;
#X obj 108 293 param.get 3;
#X obj 206 296 param.get 4;
#X obj 306 293 param.get 5;
#X obj 390 290 param.get 6;
#X obj 490 287 param.get 7;
#X obj 588 290 param.get 8;
#X obj 688 287 param.get 9;
#X obj 108 362 s Bp-r;
#X obj 108 383 r Bp-s;
#X obj 206 364 s Q-r;
#X obj 206 386 r Q-s;
#X obj 306 361 s High-r;
#X obj 306 383 r High-s;
#X obj 390 358 s Attack-r;
#X obj 390 380 r Attack-s;
#X obj 490 355 s Decay-r;
#X obj 489 377 r Decay-s;
#X obj 588 358 s Release-r;
#X obj 588 380 r Release-s;
#X obj 688 355 s Master-r;
#X obj 688 377 r Master-s;
#X obj 782 285 param.get 10;
#X obj 880 288 param.get 11;
#X obj 980 285 param.get 12;
#X obj 782 353 s HighVol-r;
#X obj 781 375 r HighVol-s;
#X obj 880 356 s BpVol-r;
#X obj 880 378 r BpVol-s;
#X obj 980 353 s LowVol-r;
#X obj 980 375 r LowVol-s;
#X obj 107 405 param.set 3;
#X obj 205 408 param.set 4;
#X obj 305 405 param.set 5;
#X obj 388 402 param.set 6;
#X obj 489 399 param.set 7;
#X obj 587 402 param.set 8;
#X obj 687 399 param.set 9;
#X obj 781 397 param.set 10;
#X obj 879 400 param.set 11;
#X obj 979 397 param.set 12;
#X connect 2 0 4 0;
#X connect 3 0 1 0;
#X connect 5 0 12 0;
#X connect 6 0 14 0;
#X connect 7 0 16 0;
#X connect 8 0 18 0;
#X connect 9 0 20 0;
#X connect 10 0 22 0;
#X connect 11 0 24 0;
#X connect 13 0 35 0;
#X connect 15 0 36 0;
#X connect 17 0 37 0;
#X connect 19 0 38 0;
#X connect 21 0 39 0;
#X connect 23 0 40 0;
#X connect 25 0 41 0;
#X connect 26 0 29 0;
#X connect 27 0 31 0;
#X connect 28 0 33 0;
#X connect 30 0 42 0;
#X connect 32 0 43 0;
#X connect 34 0 44 0;
#X restore 77 501 pd param;
#X obj 686 551 r Master-s;
#X obj 401 258 r HighVol-s;
#X obj 692 69 r BpVol-s;
#X obj 667 406 r LowVol-s;
#X text 289 186 kretopi@gmail.com;
#X obj 21 73 vsl 15 128 0 1 0 0 Master-s Master-r Gain 0 -9 0 10 -262144
-1 -1 2540 1;
#X connect 4 0 5 0;
#X connect 4 0 20 0;
#X connect 4 0 24 0;
#X connect 5 0 28 0;
#X connect 7 0 8 1;
#X connect 8 0 33 0;
#X connect 9 0 7 0;
#X connect 11 0 9 1;
#X connect 11 1 12 1;
#X connect 12 0 16 0;
#X connect 13 0 26 0;
#X connect 15 0 30 1;
#X connect 16 0 17 0;
#X connect 16 1 30 0;
#X connect 17 0 7 0;
#X connect 20 0 27 0;
#X connect 23 0 20 2;
#X connect 24 0 29 0;
#X connect 26 1 9 0;
#X connect 26 2 12 0;
#X connect 27 0 8 0;
#X connect 28 0 8 0;
#X connect 29 0 8 0;
#X connect 30 0 43 0;
#X connect 31 0 5 1;
#X connect 32 0 19 1;
#X connect 32 0 19 0;
#X connect 33 0 32 0;
#X connect 35 0 36 0;
#X connect 35 0 36 1;
#X connect 36 0 28 1;
#X connect 38 0 39 0;
#X connect 38 0 39 1;
#X connect 39 0 27 1;
#X connect 41 0 42 0;
#X connect 41 0 42 1;
#X connect 42 0 29 1;
#X connect 43 0 7 0;
#X connect 44 0 46 0;
#X connect 45 0 33 1;
#X connect 47 0 23 0;
#X connect 48 0 20 1;
#X connect 49 0 24 1;
#X connect 50 0 11 0;
#X connect 51 0 15 0;
#X connect 52 0 17 1;
#X connect 54 0 45 0;
#X connect 55 0 41 0;
#X connect 56 0 38 0;
#X connect 57 0 35 0;
#X coords 0 1 100 -1 400 205 1 0 0;
#X restore 100 152 graph;
#X coords 0 -1 1 1 400 300 2 100 100;
