#N canvas 0 23 1280 755 10;
#X obj 163 520 dac~;
#N canvas 238 56 675 557 left 0;
#X obj 67 251 lop~;
#X obj 67 271 lop~;
#X obj 103 251 hip~;
#X obj 103 271 hip~;
#X obj 362 210 lop~;
#X obj 362 230 lop~;
#X obj 397 210 hip~;
#X obj 397 230 hip~;
#X obj 532 250 lop~;
#X obj 532 270 lop~;
#X obj 567 250 hip~;
#X obj 567 270 hip~;
#X obj 790 244 lop~;
#X obj 790 264 lop~;
#X obj 825 244 hip~;
#X obj 825 264 hip~;
#X obj 177 541 *~;
#X obj 201 584 *~;
#X obj 177 466 r 1time @hv_param 0 5000 100;
#X obj 427 541 *~;
#X obj 408 584 *~;
#X obj 427 465 r 2time @hv_param 0 5000 100;
#X obj 697 541 *~;
#X obj 680 597 *~;
#X obj 957 541 *~;
#X obj 960 604 *~;
#X obj 697 462 r 3time @hv_param 0 5000 100;
#X obj 957 462 r 4time @hv_param 0 5000 100;
#X obj 605 685 *~;
#X obj 195 520 r 1feed @hv_param 0 0.9 0.2;
#X obj 445 517 r 2feed @hv_param 0 0.9 0.2;
#X obj 715 517 r 3feed @hv_param 0 0.9 0.2;
#X obj 975 517 r 4feed @hv_param 0 0.9 0.2;
#X obj 105 199 r 1point @hv_param 10 20000 100;
#X obj 379 165 r 2point @hv_param 10 20000 300;
#X obj 551 207 r 3point @hv_param 10 20000 700;
#X obj 817 197 r 4point @hv_param 10 20000 2000;
#X obj 219 562 r 1vol @hv_param 0 1 0.5;
#X obj 426 563 r 2vol @hv_param 0 1 0.5;
#X obj 698 575 r 3vol @hv_param 0 1 0.5;
#X obj 978 575 r 4vol @hv_param 0 1 0.5;
#X obj 759 683 r wet @hv_param 0 1 0.5;
#X obj 78 39 inlet~ Left;
#X obj 418 723 outlet~ Left;
#X obj 164 443 delwrite~ 1pointL 5000;
#X obj 177 489 delread~ 1pointL 5000;
#X obj 367 400 delwrite~ 2pointL 5000;
#X obj 427 489 delread~ 2pointL 5000;
#X obj 627 400 delwrite~ 3pointL 5000;
#X obj 697 489 delread~ 3pointL 5000;
#X obj 817 400 delwrite~ 4pointL 5000;
#X obj 957 489 delread~ 4pointL 5000;
#X connect 0 0 1 0;
#X connect 1 0 2 0;
#X connect 2 0 3 0;
#X connect 3 0 44 0;
#X connect 4 0 5 0;
#X connect 5 0 6 0;
#X connect 6 0 7 0;
#X connect 7 0 46 0;
#X connect 8 0 9 0;
#X connect 9 0 10 0;
#X connect 10 0 11 0;
#X connect 11 0 48 0;
#X connect 12 0 13 0;
#X connect 13 0 14 0;
#X connect 14 0 15 0;
#X connect 15 0 50 0;
#X connect 16 0 44 0;
#X connect 17 0 28 0;
#X connect 18 0 45 0;
#X connect 19 0 46 0;
#X connect 20 0 28 0;
#X connect 21 0 47 0;
#X connect 22 0 48 0;
#X connect 23 0 28 0;
#X connect 24 0 50 0;
#X connect 25 0 28 0;
#X connect 26 0 49 0;
#X connect 27 0 51 0;
#X connect 28 0 43 0;
#X connect 29 0 16 1;
#X connect 30 0 19 1;
#X connect 31 0 22 1;
#X connect 32 0 24 1;
#X connect 33 0 0 1;
#X connect 33 0 1 1;
#X connect 33 0 2 1;
#X connect 33 0 3 1;
#X connect 34 0 4 1;
#X connect 34 0 5 1;
#X connect 34 0 6 1;
#X connect 34 0 7 1;
#X connect 35 0 8 1;
#X connect 35 0 9 1;
#X connect 35 0 10 1;
#X connect 35 0 11 1;
#X connect 36 0 12 1;
#X connect 36 0 13 1;
#X connect 36 0 14 1;
#X connect 36 0 15 1;
#X connect 37 0 17 1;
#X connect 38 0 20 1;
#X connect 39 0 23 1;
#X connect 40 0 25 1;
#X connect 41 0 28 1;
#X connect 42 0 0 0;
#X connect 42 0 4 0;
#X connect 42 0 8 0;
#X connect 42 0 12 0;
#X connect 45 0 16 0;
#X connect 45 0 17 0;
#X connect 47 0 19 0;
#X connect 47 0 20 0;
#X connect 49 0 22 0;
#X connect 49 0 23 0;
#X connect 51 0 24 0;
#X connect 51 0 25 0;
#X restore 80 387 pd left;
#N canvas 118 68 902 623 right 0;
#X obj 31 214 lop~;
#X obj 31 234 lop~;
#X obj 67 214 hip~;
#X obj 67 234 hip~;
#X obj 362 210 lop~;
#X obj 362 230 lop~;
#X obj 397 210 hip~;
#X obj 397 230 hip~;
#X obj 532 250 lop~;
#X obj 532 270 lop~;
#X obj 567 250 hip~;
#X obj 567 270 hip~;
#X obj 772 220 lop~;
#X obj 772 240 lop~;
#X obj 807 220 hip~;
#X obj 807 240 hip~;
#X obj 177 541 *~;
#X obj 201 584 *~;
#X obj 177 466 r 1time @hv_param 0 5000 100;
#X obj 427 541 *~;
#X obj 408 584 *~;
#X obj 427 465 r 2time @hv_param 0 5000 100;
#X obj 697 541 *~;
#X obj 680 597 *~;
#X obj 957 541 *~;
#X obj 960 604 *~;
#X obj 697 462 r 3time @hv_param 0 5000 100;
#X obj 957 462 r 4time @hv_param 0 5000 100;
#X obj 605 685 *~;
#X obj 195 520 r 1feed @hv_param 0 0.9 0.2;
#X obj 445 517 r 2feed @hv_param 0 0.9 0.2;
#X obj 715 517 r 3feed @hv_param 0 0.9 0.2;
#X obj 975 517 r 4feed @hv_param 0 0.9 0.2;
#X obj 69 162 r 1point @hv_param 10 20000 100;
#X obj 379 165 r 2point @hv_param 10 20000 300;
#X obj 551 207 r 3point @hv_param 10 20000 700;
#X obj 799 173 r 4point @hv_param 10 20000 2000;
#X obj 219 562 r 1vol @hv_param 0 1 0.5;
#X obj 426 563 r 2vol @hv_param 0 1 0.5;
#X obj 698 575 r 3vol @hv_param 0 1 0.5;
#X obj 978 575 r 4vol @hv_param 0 1 0.5;
#X obj 759 683 r wet @hv_param 0 1 0.5;
#X obj 86 31 inlet~ Right;
#X obj 345 671 outlet~ Right;
#X obj 164 443 delwrite~ 1pointR 5000;
#X obj 177 489 delread~ 1pointR 5000;
#X obj 367 400 delwrite~ 2pointR 5000;
#X obj 427 489 delread~ 2pointR 5000;
#X obj 627 400 delwrite~ 3pointR 5000;
#X obj 817 401 delwrite~ 4pointR 5000;
#X obj 697 489 delread~ 3pointR 5000;
#X obj 957 489 delread~ 4pointR 5000;
#X connect 0 0 1 0;
#X connect 1 0 2 0;
#X connect 2 0 3 0;
#X connect 3 0 44 0;
#X connect 4 0 5 0;
#X connect 5 0 6 0;
#X connect 6 0 7 0;
#X connect 7 0 46 0;
#X connect 8 0 9 0;
#X connect 9 0 10 0;
#X connect 10 0 11 0;
#X connect 11 0 48 0;
#X connect 12 0 13 0;
#X connect 13 0 14 0;
#X connect 14 0 15 0;
#X connect 15 0 49 0;
#X connect 16 0 44 0;
#X connect 17 0 28 0;
#X connect 18 0 45 0;
#X connect 19 0 46 0;
#X connect 20 0 28 0;
#X connect 21 0 47 0;
#X connect 22 0 48 0;
#X connect 23 0 28 0;
#X connect 24 0 49 0;
#X connect 25 0 28 0;
#X connect 26 0 50 0;
#X connect 27 0 51 0;
#X connect 28 0 43 0;
#X connect 29 0 16 1;
#X connect 30 0 19 1;
#X connect 31 0 22 1;
#X connect 32 0 24 1;
#X connect 33 0 0 1;
#X connect 33 0 1 1;
#X connect 33 0 2 1;
#X connect 33 0 3 1;
#X connect 34 0 4 1;
#X connect 34 0 5 1;
#X connect 34 0 6 1;
#X connect 34 0 7 1;
#X connect 35 0 8 1;
#X connect 35 0 9 1;
#X connect 35 0 10 1;
#X connect 35 0 11 1;
#X connect 36 0 12 1;
#X connect 36 0 13 1;
#X connect 36 0 14 1;
#X connect 36 0 15 1;
#X connect 37 0 17 1;
#X connect 38 0 20 1;
#X connect 39 0 23 1;
#X connect 40 0 25 1;
#X connect 41 0 28 1;
#X connect 42 0 0 0;
#X connect 42 0 4 0;
#X connect 42 0 8 0;
#X connect 42 0 12 0;
#X connect 45 0 16 0;
#X connect 45 0 17 0;
#X connect 47 0 19 0;
#X connect 47 0 20 0;
#X connect 50 0 22 0;
#X connect 50 0 23 0;
#X connect 51 0 24 0;
#X connect 51 0 25 0;
#X restore 221 391 pd right;
#X obj 163 7 adc~ 1 2;
#X obj 376 134 r dry @hv_param 0 1 0.5;
#X obj 358 155 *~;
#X obj 37 105 r dry @hv_param 0 1 0.5;
#X obj 19 126 *~;
#X text 935 12 author: Piotr Goj kretopi@gmail.com;
#X connect 1 0 0 0;
#X connect 2 0 0 1;
#X connect 3 0 1 0;
#X connect 3 0 7 0;
#X connect 3 1 2 0;
#X connect 3 1 5 0;
#X connect 4 0 5 1;
#X connect 5 0 0 1;
#X connect 6 0 7 1;
#X connect 7 0 0 0;
